{"title":"Aguirre - Guds vrede.1972.DVDRip.XViD.SWESUB.avi","uid":5506991,"size":890117568,"categoryP":"video","categoryS":"movies","magnet":"?xt=urn:btih:832078932e5e669fa4d44fcbd3e30f583326c48b&amp;dn=Aguirre+-+Guds+vrede.1972.DVDRip.XViD.SWESUB.avi&amp;tr=udp%3A%2F%2Ftracker.openbittorrent.com%3A80&amp;tr=udp%3A%2F%2Fopen.demonii.com%3A1337&amp;tr=udp%3A%2F%2Ftracker.coppersurfer.tk%3A6969&amp;tr=udp%3A%2F%2Fexodus.desync.com%3A6969","seeders":1,"leechers":0,"uploader":"Zen_Bud","files":-1,"time":1271867718,"description":"General\nComplete name                    : Aguirre - Guds vrede.SWESUB.avi\nFormat                           : AVI\nFile size                        : 849 MiB\nDuration                         : 1h 30mn\nOverall bit rate                 : 1 312 Kbps\n\nVideo\nID                               : 0\nFormat                           : MPEG-4 Visual)\nCodec ID                         : XVID\nCodec ID/Hint                    : XviD\nDuration                         : 1h 30mn\nBit rate                         : 1 171 Kbps\nWidth                            : 720 pixels\nHeight                           : 574 pixels\nDisplay aspect ratio             : 4:3\nResolution                       : 8 bits\nColorimetry                      : 4:2:0\nScan type                        : Progressive\nBits/(Pixel*Frame)               : 0.113\nStream size                      : 758 MiB (89%)\nWriting library                  : XviD 1.1.2 (UTC 2006-11-01)\n\nAudio\nID                               : 1\nFormat                           : MPEG Audio\nFormat version                   : Version 1\nFormat profile                   : Layer 3\nMode                             : Joint stereo\nCodec ID                         : 55\nCodec ID/Hint                    : MP3\nDuration                         : 1h 30mn\nBit rate mode                    : Constant\nBit rate                         : 128 Kbps\nChannel(s)                       : 2 channels\nSampling rate                    : 48.0 KHz\nStream size                      : 82.8 MiB (10%)\n)\n\n","torrent":{"xt":"urn:btih:832078932e5e669fa4d44fcbd3e30f583326c48b","amp;dn":"Aguirre+-+Guds+vrede.1972.DVDRip.XViD.SWESUB.avi","amp;tr":["udp%3A%2F%2Ftracker.openbittorrent.com%3A80","udp%3A%2F%2Fopen.demonii.com%3A1337","udp%3A%2F%2Ftracker.coppersurfer.tk%3A6969","udp%3A%2F%2Fexodus.desync.com%3A6969"],"infoHash":"832078932e5e669fa4d44fcbd3e30f583326c48b","infoHashBuffer":{"type":"Buffer","data":[131,32,120,147,46,94,102,159,164,212,79,203,211,227,15,88,51,38,196,139]},"announce":[],"urlList":[]}}